<?xml version="1.0" encoding="UTF-8"?>
<svg width="191px" height="48px" viewBox="0 0 191 48" version="1.1" xmlns="http://www.w3.org/2000/svg" xmlns:xlink="http://www.w3.org/1999/xlink">
    <!-- Generator: Sketch 52.5 (67469) - http://www.bohemiancoding.com/sketch -->
    <title>Group 5 Copy</title>
    <desc>Created with Sketch.</desc>
    <g id="Page-1" stroke="none" stroke-width="1" fill="none" fill-rule="evenodd">
        <g id="Desktop-HD" transform="translate(-331.000000, -51.000000)" fill="#FFFFFF">
            <g id="Group-5-Copy" transform="translate(331.000000, 51.000000)">
                <path d="M39.2143146,35.2841577 C39.0143431,34.8927337 38.7110575,34.5721758 38.3044487,34.3224743 C37.8978399,34.0727728 37.4345795,33.9479239 36.9146535,33.9479239 C36.6746877,33.9479239 36.4347255,33.9749183 36.1947596,34.0289078 C35.9547938,34.0828973 35.741494,34.1706289 35.5548539,34.2921053 C35.3682138,34.4135818 35.2182374,34.5687993 35.1049202,34.7577626 C34.991603,34.9467259 34.9349453,35.1694293 34.9349453,35.4258795 C34.9349453,35.871293 35.1149169,36.2120967 35.4748657,36.4483008 C35.8348145,36.684505 36.401392,36.8835883 37.1746152,37.0455569 C38.2811244,37.2750123 39.0976625,37.6090674 39.6242542,38.0477322 C40.1508459,38.486397 40.4141378,39.0768985 40.4141378,39.8192543 C40.4141378,40.3591495 40.3108207,40.8146792 40.1041835,41.1858571 C39.8975462,41.557035 39.6275887,41.8607215 39.2943028,42.0969256 C38.961017,42.3331297 38.5844096,42.5018444 38.1644693,42.6030748 C37.7445291,42.7043051 37.3212624,42.7549195 36.8946565,42.7549195 C36.1880904,42.7549195 35.5015318,42.6064506 34.83496,42.3095083 C34.1683882,42.0125659 33.6218076,41.5469133 33.1952017,40.9125365 L34.2750425,40.1026979 C34.5150084,40.5211166 34.8682861,40.8720432 35.3348863,41.1554881 C35.8014866,41.4389331 36.3147391,41.5806534 36.8746594,41.5806534 C37.167951,41.5806534 37.4479069,41.5536591 37.7145356,41.4996696 C37.9811644,41.4456801 38.214461,41.3511998 38.4144325,41.216226 C38.614404,41.0812523 38.7743789,40.9091633 38.8943618,40.6999539 C39.0143447,40.4907445 39.0743353,40.2309239 39.0743353,39.9204842 C39.0743353,39.4210811 38.8377058,39.0465345 38.3644399,38.796833 C37.8911739,38.5471315 37.2079481,38.3143052 36.3147419,38.0983471 C36.0347818,38.0308602 35.7381618,37.9465029 35.4248731,37.8452725 C35.1115843,37.7440422 34.82163,37.5955733 34.5550013,37.3998613 C34.2883726,37.2041493 34.0684072,36.9578258 33.8950985,36.6608835 C33.7217899,36.3639411 33.6351368,35.9927688 33.6351368,35.5473553 C33.6351368,35.0614497 33.7284555,34.6464115 33.9150956,34.3022283 C34.1017357,33.9580452 34.3516963,33.6746045 34.6649851,33.4518977 C34.9782738,33.229191 35.3348843,33.0638506 35.7348274,32.9558715 C36.1347705,32.8478925 36.5480388,32.7939038 36.9746447,32.7939038 C37.627885,32.7939038 38.2611187,32.9423727 38.8743647,33.2393151 C39.4876108,33.5362574 39.9475384,33.9546699 40.2541614,34.494565 L39.2143146,35.2841577 Z M49.912738,42.5119679 C49.8860751,42.2555177 49.8660783,41.972077 49.8527469,41.6616373 C49.8394154,41.3511976 49.8327498,41.0947513 49.8327498,40.8922906 L49.7927557,40.8922906 C49.526127,41.4456831 49.0928618,41.8944642 48.4929472,42.2386474 C47.8930327,42.5828305 47.259799,42.7549195 46.5932272,42.7549195 C45.4067295,42.7549195 44.5168695,42.3972444 43.9236206,41.6818833 C43.3303718,40.9665222 43.0337518,40.0217199 43.0337518,38.8474479 L43.0337518,33.0368554 L44.3935514,33.0368554 L44.3935514,38.2805608 C44.3935514,38.7799639 44.4335451,39.2321193 44.5135337,39.6370406 C44.5935223,40.041962 44.7301675,40.3895143 44.9234733,40.6797079 C45.1167791,40.9699016 45.3767382,41.1959793 45.7033583,41.3579478 C46.0299785,41.5199164 46.439914,41.6008994 46.9331771,41.6008994 C47.2931259,41.6008994 47.6430708,41.5266649 47.9830224,41.3781938 C48.322974,41.2297226 48.6262596,41.0036449 48.8928883,40.6999539 C49.159517,40.3962629 49.3728168,40.0115933 49.532794,39.5459338 C49.6927712,39.0802742 49.7727586,38.5302643 49.7727586,37.8958875 L49.7727586,33.0368554 L51.1325583,33.0368554 L51.1325583,40.4266333 C51.1325583,40.6830835 51.1392239,41.0137643 51.1525553,41.4186857 C51.1658867,41.8236071 51.1858836,42.1880308 51.2125465,42.5119679 L49.912738,42.5119679 Z M56.0918274,47.371 L54.7320278,47.371 L54.7320278,33.0368554 L56.0918274,33.0368554 L56.0918274,34.6767787 L56.1518186,34.6767787 C56.5384302,34.0558993 57.0550156,33.5868724 57.7015902,33.269684 C58.3481648,32.9524956 59.0047281,32.7939038 59.6712999,32.7939038 C60.4045289,32.7939038 61.0677578,32.922127 61.6610067,33.1785772 C62.2542556,33.4350274 62.7608425,33.7859539 63.1807827,34.2313674 C63.6007229,34.6767809 63.9273382,35.2031708 64.1606383,35.8105529 C64.3939384,36.4179349 64.5105868,37.072548 64.5105868,37.7744117 C64.5105868,38.4762754 64.3939384,39.1308884 64.1606383,39.7382705 C63.9273382,40.3456525 63.6007229,40.8720424 63.1807827,41.3174559 C62.7608425,41.7628694 62.2542556,42.113796 61.6610067,42.3702462 C61.0677578,42.6266964 60.4045289,42.7549195 59.6712999,42.7549195 C59.0047281,42.7549195 58.3481648,42.5963277 57.7015902,42.2791393 C57.0550156,41.9619509 56.5384302,41.5064212 56.1518186,40.9125365 L56.0918274,40.9125365 L56.0918274,47.371 Z M63.0707989,37.7744117 C63.0707989,37.2480139 62.9908115,36.7519927 62.8308343,36.2863331 C62.6708571,35.8206735 62.4408933,35.4157582 62.140936,35.0715751 C61.8409787,34.7273919 61.4710369,34.4540741 61.0310995,34.2516134 C60.5911622,34.0491527 60.0912408,33.9479239 59.5313205,33.9479239 C59.0113946,33.9479239 58.5314701,34.0457784 58.0915327,34.2414904 C57.6515954,34.4372024 57.2716551,34.7071459 56.9517007,35.0513291 C56.6317462,35.3955123 56.3817856,35.8004276 56.2018112,36.2660871 C56.0218368,36.7317467 55.931851,37.2345165 55.931851,37.7744117 C55.931851,38.3143068 56.0218368,38.8170766 56.2018112,39.2827362 C56.3817856,39.7483958 56.6317462,40.1499368 56.9517007,40.4873712 C57.2716551,40.8248057 57.6515954,41.0913749 58.0915327,41.2870869 C58.5314701,41.4827989 59.0113946,41.5806534 59.5313205,41.5806534 C60.0912408,41.5806534 60.5911622,41.4827989 61.0310995,41.2870869 C61.4710369,41.0913749 61.8409787,40.8214314 62.140936,40.4772483 C62.4408933,40.1330651 62.6708571,39.7281498 62.8308343,39.2624902 C62.9908115,38.7968307 63.0707989,38.3008094 63.0707989,37.7744117 Z M68.7899561,47.371 L67.4301565,47.371 L67.4301565,33.0368554 L68.7899561,33.0368554 L68.7899561,34.6767787 L68.8499473,34.6767787 C69.2365589,34.0558993 69.7531443,33.5868724 70.3997189,33.269684 C71.0462935,32.9524956 71.7028568,32.7939038 72.3694286,32.7939038 C73.1026576,32.7939038 73.7658865,32.922127 74.3591354,33.1785772 C74.9523843,33.4350274 75.4589712,33.7859539 75.8789114,34.2313674 C76.2988516,34.6767809 76.6254669,35.2031708 76.858767,35.8105529 C77.0920671,36.4179349 77.2087155,37.072548 77.2087155,37.7744117 C77.2087155,38.4762754 77.0920671,39.1308884 76.858767,39.7382705 C76.6254669,40.3456525 76.2988516,40.8720424 75.8789114,41.3174559 C75.4589712,41.7628694 74.9523843,42.113796 74.3591354,42.3702462 C73.7658865,42.6266964 73.1026576,42.7549195 72.3694286,42.7549195 C71.7028568,42.7549195 71.0462935,42.5963277 70.3997189,42.2791393 C69.7531443,41.9619509 69.2365589,41.5064212 68.8499473,40.9125365 L68.7899561,40.9125365 L68.7899561,47.371 Z M75.7689276,37.7744117 C75.7689276,37.2480139 75.6889402,36.7519927 75.528963,36.2863331 C75.3689858,35.8206735 75.139022,35.4157582 74.8390647,35.0715751 C74.5391074,34.7273919 74.1691656,34.4540741 73.7292282,34.2516134 C73.2892909,34.0491527 72.7893695,33.9479239 72.2294492,33.9479239 C71.7095233,33.9479239 71.2295988,34.0457784 70.7896614,34.2414904 C70.3497241,34.4372024 69.9697838,34.7071459 69.6498294,35.0513291 C69.3298749,35.3955123 69.0799143,35.8004276 68.8999399,36.2660871 C68.7199655,36.7317467 68.6299797,37.2345165 68.6299797,37.7744117 C68.6299797,38.3143068 68.7199655,38.8170766 68.8999399,39.2827362 C69.0799143,39.7483958 69.3298749,40.1499368 69.6498294,40.4873712 C69.9697838,40.8248057 70.3497241,41.0913749 70.7896614,41.2870869 C71.2295988,41.4827989 71.7095233,41.5806534 72.2294492,41.5806534 C72.7893695,41.5806534 73.2892909,41.4827989 73.7292282,41.2870869 C74.1691656,41.0913749 74.5391074,40.8214314 74.8390647,40.4772483 C75.139022,40.1330651 75.3689858,39.7281498 75.528963,39.2624902 C75.6889402,38.7968307 75.7689276,38.3008094 75.7689276,37.7744117 Z M89.4269149,37.7744117 C89.4269149,38.4897727 89.3036009,39.1511344 89.0569694,39.7585164 C88.8103378,40.3658985 88.4670585,40.8922883 88.0271212,41.3377018 C87.5871838,41.7831153 87.0606,42.1306676 86.447354,42.3803691 C85.8341079,42.6300707 85.1608806,42.7549195 84.4276516,42.7549195 C83.7077541,42.7549195 83.0411923,42.6300707 82.4279463,42.3803691 C81.8147003,42.1306676 81.2881165,41.7831153 80.8481791,41.3377018 C80.4082417,40.8922883 80.0649624,40.3658985 79.8183309,39.7585164 C79.5716993,39.1511344 79.4483854,38.4897727 79.4483854,37.7744117 C79.4483854,37.0590506 79.5716993,36.3976889 79.8183309,35.7903069 C80.0649624,35.1829249 80.4082417,34.656535 80.8481791,34.2111215 C81.2881165,33.765708 81.8147003,33.4181557 82.4279463,33.1684542 C83.0411923,32.9187527 83.7077541,32.7939038 84.4276516,32.7939038 C85.1608806,32.7939038 85.8341079,32.9187527 86.447354,33.1684542 C87.0606,33.4181557 87.5871838,33.765708 88.0271212,34.2111215 C88.4670585,34.656535 88.8103378,35.1829249 89.0569694,35.7903069 C89.3036009,36.3976889 89.4269149,37.0590506 89.4269149,37.7744117 Z M87.9871271,37.7744117 C87.9871271,37.2480139 87.9038068,36.7519927 87.7371639,36.2863331 C87.5705209,35.8206735 87.3338915,35.4157582 87.0272685,35.0715751 C86.7206455,34.7273919 86.3473709,34.4540741 85.9074335,34.2516134 C85.4674962,34.0491527 84.9742405,33.9479239 84.4276516,33.9479239 C83.8810628,33.9479239 83.3911399,34.0491527 82.9578682,34.2516134 C82.5245966,34.4540741 82.1546548,34.7273919 81.8480318,35.0715751 C81.5414088,35.4157582 81.3047793,35.8206735 81.1381364,36.2863331 C80.9714934,36.7519927 80.8881732,37.2480139 80.8881732,37.7744117 C80.8881732,38.3008094 80.9714934,38.7968307 81.1381364,39.2624902 C81.3047793,39.7281498 81.5414088,40.1330651 81.8480318,40.4772483 C82.1546548,40.8214314 82.5245966,41.0913749 82.9578682,41.2870869 C83.3911399,41.4827989 83.8810628,41.5806534 84.4276516,41.5806534 C84.9742405,41.5806534 85.4674962,41.4827989 85.9074335,41.2870869 C86.3473709,41.0913749 86.7206455,40.8214314 87.0272685,40.4772483 C87.3338915,40.1330651 87.5705209,39.7281498 87.7371639,39.2624902 C87.9038068,38.7968307 87.9871271,38.3008094 87.9871271,37.7744117 Z M92.3464846,35.12219 C92.3464846,34.8657398 92.339819,34.535059 92.3264876,34.1301376 C92.3131561,33.7252162 92.2931593,33.3607925 92.2664964,33.0368554 L93.5663049,33.0368554 C93.5929677,33.2933056 93.6129646,33.5767463 93.626296,33.887186 C93.6396275,34.1976257 93.6462931,34.4540721 93.6462931,34.6565327 L93.6862872,34.6565327 C93.9529159,34.1031402 94.3528529,33.6543591 94.8861104,33.3101759 C95.4193678,32.9659928 96.0192734,32.7939038 96.6858451,32.7939038 C96.8591538,32.7939038 97.0157958,32.8006524 97.1557759,32.8141498 C97.295756,32.8276471 97.4390667,32.8546415 97.5857125,32.8951336 L97.405739,34.1908755 C97.3257504,34.1638808 97.1924381,34.1368864 97.005798,34.1098916 C96.8191579,34.0828969 96.6325206,34.0693997 96.4458805,34.0693997 C96.0859317,34.0693997 95.7393196,34.1368856 95.4060337,34.2718594 C95.0727479,34.4068332 94.7827935,34.6194137 94.5361619,34.9096073 C94.2895304,35.199801 94.0895618,35.5709733 93.9362503,36.0231355 C93.7829388,36.4752977 93.7062842,37.0185591 93.7062842,37.6529359 L93.7062842,42.5119679 L92.3464846,42.5119679 L92.3464846,35.12219 Z M103.764802,34.1908755 L101.125191,34.1908755 L101.125191,39.7180245 C101.125191,40.0689563 101.158519,40.3591456 101.225176,40.5886011 C101.291833,40.8180565 101.388485,40.9968941 101.515133,41.1251192 C101.641782,41.2533443 101.791758,41.3410759 101.965067,41.3883168 C102.138376,41.4355576 102.325013,41.4591776 102.524985,41.4591776 C102.711625,41.4591776 102.90826,41.4321833 103.114898,41.3781938 C103.321535,41.3242043 103.518171,41.2499698 103.704811,41.1554881 L103.764802,42.3500002 C103.524836,42.4444818 103.274875,42.515342 103.014912,42.5625828 C102.754949,42.6098237 102.471661,42.6334437 102.165038,42.6334437 C101.91174,42.6334437 101.645116,42.5997008 101.365156,42.5322139 C101.085195,42.464727 100.825236,42.3365038 100.58527,42.1475405 C100.345305,41.9585772 100.148669,41.7021309 99.9953574,41.3781938 C99.8420459,41.0542567 99.7653913,40.6290956 99.7653913,40.1026979 L99.7653913,34.1908755 L97.8256772,34.1908755 L97.8256772,33.0368554 L99.7653913,33.0368554 L99.7653913,30.3643878 L101.125191,30.3643878 L101.125191,33.0368554 L103.764802,33.0368554 L103.764802,34.1908755 Z M112.243552,47.371 L110.883753,47.371 L110.883753,33.0368554 L112.243552,33.0368554 L112.243552,34.6767787 L112.303544,34.6767787 C112.690155,34.0558993 113.206741,33.5868724 113.853315,33.269684 C114.49989,32.9524956 115.156453,32.7939038 115.823025,32.7939038 C116.556254,32.7939038 117.219483,32.922127 117.812732,33.1785772 C118.405981,33.4350274 118.912568,33.7859539 119.332508,34.2313674 C119.752448,34.6767809 120.079063,35.2031708 120.312363,35.8105529 C120.545663,36.4179349 120.662312,37.072548 120.662312,37.7744117 C120.662312,38.4762754 120.545663,39.1308884 120.312363,39.7382705 C120.079063,40.3456525 119.752448,40.8720424 119.332508,41.3174559 C118.912568,41.7628694 118.405981,42.113796 117.812732,42.3702462 C117.219483,42.6266964 116.556254,42.7549195 115.823025,42.7549195 C115.156453,42.7549195 114.49989,42.5963277 113.853315,42.2791393 C113.206741,41.9619509 112.690155,41.5064212 112.303544,40.9125365 L112.243552,40.9125365 L112.243552,47.371 Z M119.222524,37.7744117 C119.222524,37.2480139 119.142537,36.7519927 118.982559,36.2863331 C118.822582,35.8206735 118.592618,35.4157582 118.292661,35.0715751 C117.992704,34.7273919 117.622762,34.4540741 117.182825,34.2516134 C116.742887,34.0491527 116.242966,33.9479239 115.683046,33.9479239 C115.16312,33.9479239 114.683195,34.0457784 114.243258,34.2414904 C113.80332,34.4372024 113.42338,34.7071459 113.103426,35.0513291 C112.783471,35.3955123 112.533511,35.8004276 112.353536,36.2660871 C112.173562,36.7317467 112.083576,37.2345165 112.083576,37.7744117 C112.083576,38.3143068 112.173562,38.8170766 112.353536,39.2827362 C112.533511,39.7483958 112.783471,40.1499368 113.103426,40.4873712 C113.42338,40.8248057 113.80332,41.0913749 114.243258,41.2870869 C114.683195,41.4827989 115.16312,41.5806534 115.683046,41.5806534 C116.242966,41.5806534 116.742887,41.4827989 117.182825,41.2870869 C117.622762,41.0913749 117.992704,40.8214314 118.292661,40.4772483 C118.592618,40.1330651 118.822582,39.7281498 118.982559,39.2624902 C119.142537,38.7968307 119.222524,38.3008094 119.222524,37.7744117 Z M129.481012,36.3976859 C129.481012,35.5743458 129.267712,34.9602243 128.841106,34.5553029 C128.414501,34.1503816 127.794598,33.9479239 126.981381,33.9479239 C126.42146,33.9479239 125.901542,34.0491527 125.42161,34.2516134 C124.941679,34.4540741 124.535076,34.7240176 124.20179,35.0614521 L123.441902,34.1503836 C123.828514,33.7589596 124.338434,33.4350274 124.971677,33.1785772 C125.60492,32.922127 126.321474,32.7939038 127.12136,32.7939038 C127.627954,32.7939038 128.101213,32.864764 128.541151,33.0064864 C128.981088,33.1482089 129.367694,33.3607894 129.70098,33.6442344 C130.034266,33.9276794 130.294225,34.2853545 130.480865,34.7172706 C130.667505,35.1491868 130.760824,35.6553309 130.760824,36.2357182 L130.760824,40.3861414 C130.760824,40.7505706 130.774155,41.1284916 130.800818,41.5199155 C130.827481,41.9113395 130.867474,42.2420204 130.9208,42.5119679 L129.70098,42.5119679 C129.660985,42.2825125 129.627657,42.0328147 129.600994,41.7628672 C129.574332,41.4929196 129.561,41.2297246 129.561,40.9732744 L129.521006,40.9732744 C129.0944,41.6076512 128.611143,42.0631809 128.07122,42.3398772 C127.531297,42.6165735 126.881399,42.7549195 126.121507,42.7549195 C125.761558,42.7549195 125.391617,42.7043051 125.011671,42.6030748 C124.631725,42.5018444 124.285113,42.336504 123.971824,42.1070486 C123.658535,41.8775932 123.398576,41.5806553 123.191939,41.216226 C122.985302,40.8517968 122.881985,40.40639 122.881985,39.8799922 C122.881985,39.1511338 123.065289,38.5741295 123.431904,38.148962 C123.798518,37.7237946 124.288441,37.406611 124.901687,37.1974016 C125.514933,36.9881922 126.218156,36.8532205 127.011376,36.7924823 C127.804597,36.7317441 128.6278,36.7013754 129.481012,36.7013754 L129.481012,36.3976859 Z M129.081071,37.7744117 C128.521151,37.7744117 127.957906,37.7980317 127.39132,37.8452725 C126.824734,37.8925134 126.311482,37.9869936 125.851547,38.1287161 C125.391613,38.2704386 125.015005,38.4762705 124.721714,38.7462181 C124.428422,39.0161657 124.281778,39.3738408 124.281778,39.8192543 C124.281778,40.1566888 124.345102,40.4401295 124.47175,40.6695849 C124.598399,40.8990404 124.768372,41.0846266 124.981675,41.226349 C125.194978,41.3680715 125.431608,41.4693003 125.691571,41.5300385 C125.951534,41.5907767 126.214825,41.6211454 126.481454,41.6211454 C126.961386,41.6211454 127.387985,41.536788 127.761266,41.3680708 C128.134546,41.1993536 128.44783,40.9699016 128.701127,40.6797079 C128.954424,40.3895143 129.147727,40.0554592 129.281042,39.6775326 C129.414356,39.2996059 129.481012,38.9014392 129.481012,38.4830205 L129.481012,37.7744117 L129.081071,37.7744117 Z M134.760234,44.4150888 C135.133514,44.9009945 135.643434,45.3126583 136.290009,45.6500928 C136.936583,45.9875273 137.619809,46.156242 138.339707,46.156242 C139.006278,46.156242 139.572856,46.0583875 140.039456,45.8626755 C140.506056,45.6669635 140.882664,45.4003942 141.16929,45.0629598 C141.455916,44.7255253 141.665883,44.3307329 141.799197,43.8785707 C141.932511,43.4264085 141.999167,42.9438845 141.999167,42.4309841 L141.999167,40.649339 L141.959173,40.649339 C141.599225,41.2432236 141.089305,41.7021276 140.429399,42.0260647 C139.769493,42.3500018 139.099598,42.5119679 138.419695,42.5119679 C137.686466,42.5119679 137.023237,42.3904933 136.429988,42.1475405 C135.836739,41.9045877 135.330152,41.5705326 134.910212,41.1453652 C134.490272,40.7201977 134.163657,40.2106793 133.930356,39.6167947 C133.697056,39.02291 133.580408,38.3817941 133.580408,37.6934278 C133.580408,37.0185589 133.697056,36.3841916 133.930356,35.7903069 C134.163657,35.1964222 134.490272,34.6767809 134.910212,34.2313674 C135.330152,33.7859539 135.836739,33.4350274 136.429988,33.1785772 C137.023237,32.922127 137.686466,32.7939038 138.419695,32.7939038 C139.099598,32.7939038 139.76616,32.9558699 140.4194,33.279807 C141.072641,33.6037441 141.585893,34.0693967 141.959173,34.6767787 L141.999167,34.6767787 L141.999167,33.0368554 L143.358967,33.0368554 L143.358967,42.4309841 C143.358967,42.9438845 143.288978,43.4905201 143.148998,44.0709074 C143.009018,44.6512947 142.749059,45.1844331 142.369113,45.6703388 C141.989167,46.1562444 141.472582,46.5611597 140.819341,46.8850968 C140.166101,47.2090339 139.319567,47.371 138.279716,47.371 C137.413172,47.371 136.586636,47.2022853 135.800081,46.8648508 C135.013526,46.5274164 134.340299,46.0617638 133.780379,45.4678791 L134.760234,44.4150888 Z M135.020196,37.6529359 C135.020196,38.1523389 135.100183,38.62474 135.260161,39.0701535 C135.420138,39.515567 135.650102,39.9069852 135.950059,40.2444196 C136.250016,40.5818541 136.619958,40.8484233 137.059895,41.0441353 C137.499833,41.2398473 137.999754,41.3377018 138.559674,41.3377018 C139.0796,41.3377018 139.559525,41.2499702 139.999462,41.0745043 C140.439399,40.8990384 140.81934,40.6493406 141.139294,40.3254035 C141.459249,40.0014664 141.709209,39.6134226 141.889184,39.1612604 C142.069158,38.7090982 142.159144,38.2063284 142.159144,37.6529359 C142.159144,37.1535328 142.069158,36.6811317 141.889184,36.2357182 C141.709209,35.7903047 141.459249,35.3988866 141.139294,35.0614521 C140.81934,34.7240176 140.439399,34.4540741 139.999462,34.2516134 C139.559525,34.0491527 139.0796,33.9479239 138.559674,33.9479239 C137.999754,33.9479239 137.499833,34.0491527 137.059895,34.2516134 C136.619958,34.4540741 136.250016,34.7240176 135.950059,35.0614521 C135.650102,35.3988866 135.420138,35.7903047 135.260161,36.2357182 C135.100183,36.6811317 135.020196,37.1535328 135.020196,37.6529359 Z M154.037393,37.0455569 C153.997399,36.1547298 153.71411,35.4157594 153.187519,34.8286235 C152.660927,34.2414875 151.911045,33.9479239 150.93785,33.9479239 C150.484581,33.9479239 150.064647,34.0322813 149.678036,34.2009985 C149.291424,34.3697157 148.951478,34.5991677 148.658186,34.8893614 C148.364894,35.179555 148.131598,35.5102358 147.958289,35.8814138 C147.784981,36.2525917 147.684996,36.6406355 147.658333,37.0455569 L154.037393,37.0455569 Z M155.41719,37.4909681 L155.41719,37.7946576 C155.41719,37.9026367 155.410524,38.0173627 155.397193,38.1388391 L147.638336,38.1388391 C147.651668,38.6112473 147.744986,39.0566541 147.918295,39.4750729 C148.091604,39.8934916 148.331566,40.2579154 148.638189,40.5683551 C148.944812,40.8787948 149.304755,41.1251183 149.71803,41.3073329 C150.131304,41.4895475 150.577901,41.5806534 151.057832,41.5806534 C151.764398,41.5806534 152.374303,41.415313 152.887563,41.0846273 C153.400823,40.7539415 153.790762,40.3726462 154.05739,39.9407301 L155.07724,40.7505688 C154.51732,41.4659299 153.90075,41.9788226 153.227513,42.2892623 C152.554275,42.599702 151.831056,42.7549195 151.057832,42.7549195 C150.364598,42.7549195 149.721366,42.6300707 149.128117,42.3803691 C148.534868,42.1306676 148.024948,41.7831153 147.598342,41.3377018 C147.171736,40.8922883 146.835123,40.3658985 146.588491,39.7585164 C146.34186,39.1511344 146.218546,38.4897727 146.218546,37.7744117 C146.218546,37.0590506 146.338527,36.3976889 146.578493,35.7903069 C146.818458,35.1829249 147.151739,34.656535 147.578345,34.2111215 C148.004951,33.765708 148.504872,33.4181557 149.078124,33.1684542 C149.651376,32.9187527 150.271278,32.7939038 150.93785,32.7939038 C151.671079,32.7939038 152.317644,32.9187527 152.877564,33.1684542 C153.437485,33.4181557 153.904078,33.7555851 154.277358,34.1807525 C154.650638,34.60592 154.933927,35.1019412 155.127233,35.6688311 C155.320539,36.235721 155.41719,36.8430939 155.41719,37.4909681 Z M10.650524,4.88078914 L10.650524,20.2414043 L6.03420433,20.2414043 L6.03420433,4.88078914 L0.635,4.88078914 L0.635,0.890309053 L16.0497284,0.890309053 L16.0497284,4.88078914 L10.650524,4.88078914 Z M35.1169185,12.0417877 L35.1169185,20.2414043 L30.5005988,20.2414043 L30.5005988,12.0417877 L23.319657,0.890309053 L28.9078335,0.890309053 L32.9842327,8.05130757 L37.060632,0.890309053 L42.4598363,0.890309053 L35.1169185,12.0417877 Z M66.3863103,6.84869713 C66.3863103,7.97842773 66.1793429,8.93048481 65.7654018,9.70489692 C65.3514608,10.479309 64.7935486,11.1033847 64.0916485,11.5771427 C63.3897484,12.0509007 62.5798759,12.3971033 61.6620065,12.6157608 C60.7441372,12.8344184 59.7902873,12.9437455 58.8004283,12.9437455 L56.5057664,12.9437455 L56.5057664,20.2414043 L51.8894467,20.2414043 L51.8894467,0.890309053 L58.9084123,0.890309053 C59.9522637,0.890309053 60.9286101,0.995080884 61.8374807,1.20462769 C62.7463513,1.4141745 63.5382267,1.75126647 64.2131306,2.21591374 C64.8880345,2.680561 65.418951,3.2909708 65.8058959,4.04716145 C66.1928408,4.8033521 66.3863103,5.73718799 66.3863103,6.84869713 Z M61.7699906,6.87602918 C61.7699906,6.42049265 61.6800048,6.0469583 61.5000304,5.75541491 C61.320056,5.46387153 61.0770943,5.23610668 60.7711378,5.07211353 C60.4651814,4.90812038 60.1187359,4.79879325 59.731791,4.74412886 C59.3448461,4.68946448 58.9444091,4.6621327 58.530468,4.6621327 L56.5057664,4.6621327 L56.5057664,9.22658595 L58.44948,9.22658595 C58.8814185,9.22658595 59.2953533,9.19014357 59.691297,9.11725773 C60.0872406,9.04437188 60.4426847,8.91682357 60.7576398,8.73460895 C61.072595,8.55239434 61.320056,8.3109636 61.5000304,8.01030948 C61.6800048,7.70965537 61.7699906,7.33156572 61.7699906,6.87602918 Z M77.1657218,20.2414043 L77.1657218,0.890309053 L90.0158281,0.890309053 L90.0158281,4.85345709 L81.6200654,4.85345709 L81.6200654,8.48862045 L89.5568957,8.48862045 L89.5568957,12.233112 L81.6200654,12.233112 L81.6200654,16.2509242 L90.5017565,16.2509242 L90.5017565,20.2414043 L77.1657218,20.2414043 Z M118.531626,19.0661259 C117.595759,19.5581053 116.502431,19.9589715 115.251609,20.2687363 C114.000787,20.5785012 112.637502,20.7333813 111.161712,20.7333813 C109.63193,20.7333813 108.223651,20.4873952 106.936834,19.9954158 C105.650018,19.5034363 104.543192,18.8110312 103.616324,17.9181796 C102.689456,17.025328 101.96507,15.9548332 101.443144,14.7066631 C100.921218,13.458493 100.660259,12.0691274 100.660259,10.5385246 C100.660259,8.98970039 100.925718,7.58666891 101.456642,6.32938808 C101.987566,5.07210724 102.720951,4.00161244 103.656818,3.11787157 C104.592685,2.23413069 105.690512,1.55539144 106.950332,1.08163344 C108.210153,0.607875445 109.568939,0.371 111.026732,0.371 C112.538517,0.371 113.942296,0.603320148 115.238111,1.06796741 C116.533927,1.53261468 117.586761,2.15669037 118.396646,2.94021321 L115.481075,6.30205602 C115.031139,5.77363364 114.437233,5.34088043 113.699338,5.00378339 C112.961443,4.66668635 112.124575,4.49814036 111.188708,4.49814036 C110.378823,4.49814036 109.631941,4.64846517 108.948038,4.94911928 C108.264135,5.24977339 107.670229,5.66886072 107.166301,6.20639383 C106.662372,6.74392694 106.270934,7.38166852 105.991974,8.1196377 C105.713013,8.85760689 105.573535,9.66389446 105.573535,10.5385246 C105.573535,11.4313762 105.699516,12.2513297 105.95148,12.9984096 C106.203444,13.7454895 106.576885,14.3877864 107.071815,14.9253195 C107.566744,15.4628526 108.178648,15.8819399 108.907544,16.182594 C109.63644,16.4832482 110.468809,16.633573 111.404676,16.633573 C111.944599,16.633573 112.457518,16.5925753 112.943449,16.5105787 C113.42938,16.4285821 113.879309,16.2964785 114.29325,16.1142639 L114.29325,12.5884288 L110.648787,12.5884288 L110.648787,8.81660512 L118.531626,8.81660512 L118.531626,19.0661259 Z M140.541382,20.2414043 L136.410991,12.5610967 L134.845222,12.5610967 L134.845222,20.2414043 L130.30989,20.2414043 L130.30989,0.890309053 L137.598816,0.890309053 C138.516685,0.890309053 139.412044,0.98597029 140.28492,1.17729563 C141.157796,1.36862098 141.940673,1.69204707 142.633574,2.1475836 C143.326475,2.60312014 143.879888,3.20441934 144.293829,3.95149926 C144.70777,4.69857917 144.914738,5.62785976 144.914738,6.73936891 C144.914738,8.05131413 144.563793,9.153696 143.861893,10.0465476 C143.159993,10.9393992 142.188146,11.5771408 140.946323,11.9597915 L145.940587,20.2414043 L140.541382,20.2414043 Z M140.35241,6.82136507 C140.35241,6.36582854 140.257925,5.99684948 140.068952,5.71441683 C139.879979,5.43198418 139.637017,5.21332992 139.340059,5.0584475 C139.043102,4.90356508 138.710154,4.79879325 138.341206,4.74412886 C137.972259,4.68946448 137.616815,4.6621327 137.274864,4.6621327 L134.818226,4.6621327 L134.818226,9.17192184 L137.004903,9.17192184 C137.38285,9.17192184 137.769789,9.14003476 138.165732,9.07625964 C138.561676,9.01248453 138.921619,8.8986021 139.245573,8.73460895 C139.569527,8.5706158 139.834985,8.33374035 140.041956,8.02397551 C140.248926,7.71421067 140.35241,7.31334453 140.35241,6.82136507 Z M156.207074,20.2414043 L156.207074,0.890309053 L160.850389,0.890309053 L160.850389,20.2414043 L156.207074,20.2414043 Z M190.635,10.5111926 C190.635,12.2057885 190.324549,13.6680388 189.703637,14.8979874 C189.082726,16.1279361 188.263855,17.139212 187.246999,17.9318456 C186.230144,18.7244792 185.082825,19.3075572 183.805007,19.6810971 C182.527188,20.0546371 181.231392,20.2414043 179.917579,20.2414043 L172.79063,20.2414043 L172.79063,0.890309053 L179.701611,0.890309053 C181.051419,0.890309053 182.383209,1.04974445 183.697022,1.36862002 C185.010835,1.6874956 186.180651,2.21591005 187.206505,2.95387923 C188.232359,3.69184842 189.060229,4.68034787 189.690139,5.91940725 C190.32005,7.15846662 190.635,8.68904641 190.635,10.5111926 Z M185.829708,10.5111926 C185.829708,9.41790487 185.654236,8.51140076 185.303286,7.79165304 C184.952336,7.07190532 184.484409,6.49793789 183.899493,6.06973355 C183.314576,5.64152921 182.648681,5.33632431 181.901787,5.15410969 C181.154893,4.97189508 180.385514,4.88078914 179.593627,4.88078914 L177.298965,4.88078914 L177.298965,16.1962601 L179.485643,16.1962601 C180.313525,16.1962601 181.1099,16.1005988 181.874791,15.9092735 C182.639682,15.7179481 183.314576,15.4036327 183.899493,14.9663176 C184.484409,14.5290025 184.952336,13.9459245 185.303286,13.217066 C185.654236,12.4882076 185.829708,11.5862588 185.829708,10.5111926 Z" id="Combined-Shape"></path>
            </g>
        </g>
    </g>
</svg>